<?xml version="1.0" encoding="iso-8859-1"?>
<!-- Generator: Adobe Illustrator 19.0.0, SVG Export Plug-In . SVG Version: 6.00 Build 0)  -->
<svg version="1.1" id="Capa_1" xmlns="http://www.w3.org/2000/svg" xmlns:xlink="http://www.w3.org/1999/xlink" x="0px" y="0px"
	 viewBox="0 0 470.246 470.246" style="enable-background:new 0 0 470.246 470.246;" xml:space="preserve">
<g>
	<g>
		<path style="fill:#00EFD1;" d="M460.821,44.952v317.127H9.425V44.952H460.821z M424.25,323.939V78.388H45.997v245.551H424.25z"/>
		<path style="fill:#D4E1F4;" d="M424.25,78.388v245.551H45.997V78.388H424.25z M335.433,230.421l41.273-21.943L254.454,166.16
			l42.841,122.253l21.42-41.273l29.78,29.257l16.718-16.196L335.433,230.421z"/>
		<polygon style="fill:#FEDB41;" points="376.707,208.478 335.433,230.421 365.213,260.201 348.495,276.397 318.715,247.139 
			297.295,288.413 254.454,166.16 		"/>
		<polygon style="fill:#00ACEA;" points="310.356,421.637 310.356,425.295 165.115,425.295 165.115,421.637 165.115,362.078 
			310.356,362.078 		"/>
	</g>
	<g>
		<path style="fill:#224099;" d="M460.821,36.593H9.425c-5.747,0-9.404,2.612-9.404,8.359v317.127
			c-0.326,4.605,3.143,8.603,7.748,8.929c0.552,0.039,1.107,0.023,1.656-0.047h147.331v41.796h-31.347
			c-5.771,0-10.449,4.678-10.449,10.449s4.678,10.449,10.449,10.449h219.429c5.771,0,10.449-4.678,10.449-10.449
			s-4.678-10.449-10.449-10.449h-26.122V370.96h142.106c4.579,0.589,8.768-2.646,9.357-7.225c0.071-0.549,0.086-1.104,0.047-1.656
			V44.952C470.225,39.205,466.568,36.593,460.821,36.593z M297.817,412.756H177.654V370.96h120.163V412.756z M449.327,350.062
			H20.919V57.49h428.408V350.062z"/>
		<path style="fill:#224099;" d="M424.25,334.388H45.997c-5.771,0-10.449-4.678-10.449-10.449V78.388
			c0-5.771,4.678-10.449,10.449-10.449H424.25c5.771,0,10.449,4.678,10.449,10.449v245.551
			C434.699,329.71,430.021,334.388,424.25,334.388z M56.446,313.49h357.355V88.837H56.446V313.49z"/>
		<path style="fill:#224099;" d="M297.295,298.862h-1.045c-4.216-0.299-7.78-3.234-8.882-7.314l-42.841-122.253
			c-1.016-3.7-0.026-7.662,2.612-10.449c2.671-3.21,7.14-4.274,10.971-2.612l121.731,42.318c3.999,1.528,6.818,5.152,7.314,9.404
			c0.104,4.126-2.116,7.962-5.747,9.927l-28.735,15.151l19.853,19.853c4.04,3.706,4.31,9.986,0.603,14.025
			c-0.192,0.21-0.394,0.411-0.603,0.603l-16.718,16.718c-4.165,3.725-10.464,3.725-14.629,0l-19.853-19.853l-15.151,28.735
			C304.676,296.672,301.154,298.951,297.295,298.862z M271.695,182.878l27.167,79.412l10.449-20.376
			c1.792-2.735,4.622-4.622,7.837-5.224c3.308-0.62,6.695,0.576,8.882,3.135l22.465,21.943l1.567-1.567l-21.943-22.465
			c-2.472-2.245-3.65-5.582-3.135-8.882c0.591-3.364,2.716-6.262,5.747-7.837l19.853-10.449L271.695,182.878z"/>
		<path style="fill:#224099;" d="M229.376,151.531c-2.756-0.039-5.385-1.166-7.314-3.135l-14.629-14.629
			c-4.04-3.706-4.31-9.986-0.603-14.025c0.192-0.21,0.394-0.411,0.603-0.603c4.24-4.047,10.911-4.047,15.151,0l14.106,14.629
			c4.04,3.706,4.31,9.986,0.603,14.025c-0.192,0.21-0.394,0.411-0.603,0.603C234.837,150.472,232.158,151.62,229.376,151.531z"/>
		<path style="fill:#224099;" d="M266.993,147.352c-5.012-0.195-9.178-3.922-9.927-8.882l-4.18-21.943
			c-0.607-5.739,3.553-10.883,9.292-11.49c4.967-0.525,9.611,2.538,11.083,7.31l4.18,22.465c0.953,5.614-2.764,10.958-8.359,12.016
			L266.993,147.352z"/>
		<path style="fill:#224099;" d="M225.197,189.148h-2.09l-21.943-4.18c-5.595-1.059-9.313-6.402-8.359-12.016
			c1.059-5.595,6.402-9.313,12.016-8.359l22.465,4.18c5.51,1.716,8.585,7.574,6.869,13.084
			C232.906,185.866,229.377,188.739,225.197,189.148L225.197,189.148z"/>
	</g>
</g>
<g>
</g>
<g>
</g>
<g>
</g>
<g>
</g>
<g>
</g>
<g>
</g>
<g>
</g>
<g>
</g>
<g>
</g>
<g>
</g>
<g>
</g>
<g>
</g>
<g>
</g>
<g>
</g>
<g>
</g>
</svg>
