<?xml version="1.0" encoding="iso-8859-1"?>
<!-- Generator: Adobe Illustrator 19.0.0, SVG Export Plug-In . SVG Version: 6.00 Build 0)  -->
<svg version="1.1" id="Capa_1" xmlns="http://www.w3.org/2000/svg" xmlns:xlink="http://www.w3.org/1999/xlink" x="0px" y="0px"
	 viewBox="0 0 512 512" style="enable-background:new 0 0 512 512;" xml:space="preserve">
<g>
	<path style="fill:#87D2F3;" d="M448,256v32H64v-32V64h384V256z"/>
	<path style="fill:#87D2F3;" d="M362.667,458.667v32c0,5.891-4.776,10.667-10.667,10.667H160c-5.891,0-10.667-4.776-10.667-10.667
		v-32H362.667z"/>
</g>
<path style="fill:#FFFFFF;" d="M181.333,373.333h149.333v85.333H181.333V373.333z"/>
<path style="fill:#87D2F3;" d="M501.333,288v64c-0.035,11.768-9.566,21.298-21.333,21.333H32
	c-11.767-0.035-21.298-9.566-21.333-21.333v-64H501.333z"/>
<g>
	<path style="fill:#FFFFFF;" d="M501.333,32v256H448V64H64v224H10.667V32C10.702,20.233,20.233,10.702,32,10.667h448
		C491.768,10.702,501.298,20.233,501.333,32z"/>
	<path style="fill:#FFFFFF;" d="M330.667,106.667h74.667v42.667h-74.667V106.667z"/>
	<path style="fill:#FFFFFF;" d="M298.667,234.667V256H85.333v-21.333c0,0,0-21.333,32-32c18.215-5.964,36.03-13.09,53.333-21.333
		v-14.4c-25.564-9.008-42.664-33.162-42.667-60.267v-32c0-35.346,28.654-64,64-64s64,28.654,64,64v32
		c-0.002,27.104-17.103,51.259-42.667,60.267v14.4c17.304,8.243,35.118,15.369,53.333,21.333
		C298.667,213.333,298.667,234.667,298.667,234.667z"/>
</g>
<g>
	<path style="fill:#2170A6;" d="M42.667,277.333h426.667v21.333H42.667V277.333z"/>
	<path style="fill:#2170A6;" d="M480,0H277.333v21.333H480c5.891,0,10.667,4.776,10.667,10.667v320
		c0,5.891-4.776,10.667-10.667,10.667H32c-5.891,0-10.667-4.776-10.667-10.667V32c0-5.891,4.776-10.667,10.667-10.667h74.667V0H32
		C14.327,0,0,14.327,0,32v320c0,17.673,14.327,32,32,32h138.667v64h-21.333c-5.891,0-10.667,4.776-10.667,10.667v32h-21.333V512
		h277.333v-21.333h-21.333v-32c0-5.891-4.776-10.667-10.667-10.667h-21.333v-64H480c17.673,0,32-14.327,32-32V32
		C512,14.327,497.673,0,480,0z M352,490.667H160v-21.333h192V490.667z M320,448H192v-64h128V448z"/>
	<path style="fill:#2170A6;" d="M448,53.333H298.667v21.333h138.667V256h21.333V64C458.667,58.109,453.891,53.333,448,53.333z"/>
	<path style="fill:#2170A6;" d="M113.963,192.544c-38.848,12.949-39.296,40.939-39.296,42.123V256H96v-21.045
		c0-0.576,1.067-14.293,24.715-22.165c18.692-6.098,36.97-13.398,54.72-21.856c3.634-1.816,5.921-5.538,5.899-9.6v-14.4
		c-0.001-4.525-2.857-8.556-7.125-10.059c-21.278-7.53-35.512-27.638-35.541-50.208v-32c0-29.455,23.878-53.333,53.333-53.333
		s53.333,23.878,53.333,53.333v32c-0.03,22.57-14.264,42.678-35.541,50.208c-4.268,1.502-7.124,5.534-7.125,10.059v14.4
		c-0.002,4.043,2.282,7.739,5.899,9.547c17.752,8.476,36.034,15.795,54.731,21.909C286.933,220.661,288,234.379,288,234.667V256
		h21.333v-21.333c0-1.184-0.448-29.173-39.296-42.123c-15.647-5.19-31.013-11.189-46.037-17.973v-0.512
		c26.035-12.349,42.64-38.577,42.667-67.392v-32C266.667,33.429,233.237,0,192,0s-74.667,33.429-74.667,74.667v32
		c0.027,28.815,16.632,55.043,42.667,67.392v0.512C144.976,181.355,129.609,187.354,113.963,192.544L113.963,192.544z"/>
	<path style="fill:#2170A6;" d="M416,106.667C416,100.776,411.224,96,405.333,96h-74.667C324.776,96,320,100.776,320,106.667v42.667
		c0,5.891,4.776,10.667,10.667,10.667h74.667c5.891,0,10.667-4.776,10.667-10.667V106.667z M394.667,138.667h-53.333v-21.333h53.333
		V138.667z"/>
	<path style="fill:#2170A6;" d="M352,181.333h21.333v21.333H352V181.333z"/>
	<path style="fill:#2170A6;" d="M394.667,181.333H416v21.333h-21.333V181.333z"/>
	<path style="fill:#2170A6;" d="M352,224h64v21.333h-64V224z"/>
</g>
<g>
</g>
<g>
</g>
<g>
</g>
<g>
</g>
<g>
</g>
<g>
</g>
<g>
</g>
<g>
</g>
<g>
</g>
<g>
</g>
<g>
</g>
<g>
</g>
<g>
</g>
<g>
</g>
<g>
</g>
</svg>
